<!-- Created with Inkscape (http://www.inkscape.org/) -->
<svg width="100mm" height="100mm" version="1.1" viewBox="0 0 100 100" xmlns="http://www.w3.org/2000/svg">
 <g transform="translate(-56.585 -59.233)">
  <path d="m0 0"/>
  <path transform="scale(.26458)" d="m565.14 508.36c-0.76031-0.7924-1.52-1.5844-2.2969-2.3652-1.0483-1.0536-2.1116-2.0967-3.1895-3.1289-1.0779-1.0322-2.1704-2.0542-3.2773-3.0644-1.107-1.0103-2.2297-2.0101-3.3652-2.998-1.1355-0.98796-2.2837-1.9645-3.4473-2.9297s-2.3422-1.9194-3.5332-2.8613c-1.191-0.94193-2.3953-1.8708-3.6133-2.7891-1.218-0.91825-2.449-1.8246-3.6934-2.7188-1.2444-0.89412-2.5013-1.7769-3.7715-2.6465-1.2702-0.86955-2.5541-1.7258-3.8496-2.5703-1.2955-0.84452-2.6035-1.677-3.9238-2.4961-1.3203-0.81905-2.6535-1.6248-3.998-2.418-1.3446-0.79314-2.7001-1.5731-4.0684-2.3398-1.3682-0.76678-2.7492-1.5198-4.1406-2.2598s-2.793-1.467-4.207-2.1797c-1.414-0.7127-2.8393-1.4126-4.2754-2.0976s-2.8841-1.3549-4.3418-2.0117c-1.4577-0.65685-2.9256-1.2995-4.4043-1.9277-1.4787-0.62825-2.9676-1.2426-4.4668-1.8418s-3.0083-1.1842-4.5273-1.7539c-1.5191-0.56972-3.0475-1.1243-4.5859-1.6641s-3.0872-1.0648-4.6445-1.5742-3.1236-1.0039-4.6992-1.4824-3.1605-0.94139-4.7539-1.3887c-1.5934-0.44729-3.196-0.87742-4.8066-1.293-1.6107-0.41556-3.2301-0.81584-4.8574-1.1992-1.6274-0.38339-3.2627-0.7508-4.9062-1.1016-1.6435-0.35077-3.294-0.68426-4.9531-1.002-1.6592-0.3177-3.3258-0.62011-5-0.90429-1.6742-0.28419-3.3562-0.55056-5.0449-0.80078-1.6888-0.25023-3.3851-0.4834-5.0879-0.69922-1.7028-0.21583-3.4126-0.41474-5.1289-0.59571-1.7163-0.18097-3.4388-0.34456-5.168-0.49023s-3.4655-0.27289-5.207-0.38281c-1.7416-0.10993-3.4888-0.20167-5.2422-0.27539-1.7534-0.0737-3.5126-0.12893-5.2774-0.16602-1.7647-0.0371-3.535-0.0566-5.3105-0.0566s-3.5458 0.0196-5.3106 0.0566c-1.7647 0.0371-3.5239 0.0923-5.2773 0.16602-1.7534 0.0737-3.5006 0.16546-5.2422 0.27539-1.7416 0.10992-3.4778 0.23714-5.207 0.38281s-3.4517 0.30926-5.168 0.49023-3.4261 0.37988-5.1289 0.59571c-1.7028 0.21582-3.3991 0.44899-5.0879 0.69922-1.6888 0.25022-3.3707 0.51659-5.0449 0.80078-1.6742 0.28418-3.3408 0.58659-5 0.90429s-3.3096 0.65119-4.9531 1.002c-1.6435 0.35076-3.2789 0.71817-4.9062 1.1016-1.6274 0.38338-3.2468 0.78366-4.8574 1.1992-1.6107 0.41555-3.2132 0.84568-4.8066 1.293-1.5934 0.44728-3.1783 0.91011-4.7539 1.3887-1.5756 0.47856-3.1419 0.97303-4.6992 1.4824s-3.1061 1.0344-4.6445 1.5742c-1.5385 0.53978-3.0669 1.0943-4.5859 1.6641s-3.0282 1.1547-4.5273 1.7539c-1.4992 0.59921-2.9881 1.2135-4.4668 1.8418-1.4787 0.62826-2.9466 1.2709-4.4043 1.9277s-2.9057 1.3267-4.3418 2.0117c-1.4361 0.685-2.8614 1.385-4.2754 2.0976-1.414 0.71271-2.8156 1.4397-4.207 2.1797-1.3914 0.73996-2.7724 1.493-4.1406 2.2598-1.3682 0.76677-2.7238 1.5467-4.0684 2.3398s-2.6777 1.5989-3.998 2.418c-1.3203 0.81905-2.6283 1.6516-3.9238 2.4961-1.2955 0.84453-2.5794 1.7008-3.8496 2.5703-1.2702 0.86954-2.5271 1.7524-3.7715 2.6465s-2.4754 1.8005-3.6934 2.7188-2.4223 1.8471-3.6133 2.7891c-1.191 0.94194-2.3697 1.8962-3.5332 2.8613-1.1636 0.96517-2.3117 1.9417-3.4473 2.9297-1.1355 0.98796-2.2582 1.9877-3.3652 2.998-1.107 1.0103-2.1994 2.0322-3.2774 3.0644-1.0779 1.0322-2.1412 2.0753-3.1894 3.1289-1.0483 1.0536-2.0815 2.1168-3.0996 3.1914-0.56761 0.59914-1.1196 1.2089-1.6777 1.8144 33.163 54.462 93.094 90.83 161.52 90.83 69.524 0 130.27-37.551 163.09-93.471z" fill="#4294ff" opacity=".99"/>
  <path d="m106.58 59.233c-27.614 0-50 22.386-50 50 0 9.5096 2.6553 18.399 7.2642 25.968 0.14766-0.16022 0.29372-0.32155 0.4439-0.48008 0.26937-0.28433 0.54275-0.56561 0.8201-0.84439s0.55868-0.55475 0.84388-0.82785c0.2852-0.27311 0.57424-0.5435 0.86713-0.81081 0.29289-0.26731 0.58994-0.53183 0.89038-0.79323 0.30044-0.2614 0.60424-0.51978 0.91209-0.77515 0.30785-0.25537 0.6197-0.50784 0.93482-0.75706s0.63376-0.49498 0.95601-0.73794c0.32225-0.24295 0.64797-0.48276 0.9772-0.71933 0.32923-0.23657 0.6618-0.47015 0.99787-0.70022 0.33608-0.23007 0.67577-0.45661 1.0185-0.68006 0.34278-0.22345 0.68885-0.44372 1.0382-0.66043 0.34933-0.2167 0.70207-0.4299 1.0578-0.63975 0.35575-0.20985 0.7144-0.41621 1.0764-0.61908 0.36202-0.20288 0.7274-0.40212 1.0955-0.5979 0.36815-0.19578 0.73898-0.38814 1.1131-0.57671 0.37413-0.18857 0.75122-0.37376 1.1312-0.555 0.37997-0.18124 0.76309-0.35848 1.1488-0.53227 0.38568-0.17379 0.77407-0.34382 1.1653-0.51005 0.39123-0.16622 0.78519-0.32876 1.1818-0.48731 0.39665-0.15854 0.79594-0.31331 1.1979-0.46405s0.80631-0.29747 1.2134-0.44028c0.40705-0.14282 0.81682-0.28174 1.2289-0.41652 0.41204-0.13477 0.82644-0.2656 1.2433-0.39222 0.41689-0.12662 0.83621-0.24908 1.2578-0.36742 0.4216-0.11834 0.8456-0.23215 1.2718-0.3421 0.42616-0.10995 0.85462-0.21585 1.2852-0.31729 0.43057-0.10144 0.86326-0.19865 1.2981-0.29145 0.43485-0.0928 0.87153-0.18105 1.3105-0.26511 0.43898-0.0841 0.87994-0.16407 1.3229-0.23926 0.44297-0.0752 0.88798-0.14567 1.3348-0.21187 0.44682-0.0662 0.89564-0.1279 1.3462-0.185 0.45053-0.0571 0.90293-0.10973 1.357-0.15762 0.45409-0.0479 0.90985-0.0912 1.3674-0.1297s0.9169-0.0722 1.3777-0.10129c0.46079-0.0291 0.92307-0.0534 1.387-0.0729 0.46392-0.0195 0.92937-0.0341 1.3963-0.0439 0.46692-0.01 0.93532-0.015 1.4051-0.015s0.93816 5e-3 1.4051 0.015 0.93237 0.0244 1.3963 0.0439c0.46392 0.0195 0.9262 0.0438 1.387 0.0729s0.92018 0.0628 1.3777 0.10129c0.45752 0.0385 0.91327 0.0818 1.3674 0.1297s0.9065 0.10051 1.357 0.15762c0.45053 0.0571 0.89936 0.11879 1.3462 0.185 0.44682 0.0662 0.89182 0.13668 1.3348 0.21187 0.44297 0.0752 0.88393 0.15521 1.3229 0.23926 0.43898 0.0841 0.87566 0.1723 1.3105 0.26511 0.43485 0.0928 0.86754 0.19001 1.2981 0.29145s0.85904 0.20734 1.2852 0.31729c0.42616 0.10995 0.85017 0.22376 1.2718 0.3421 0.4216 0.11834 0.84092 0.2408 1.2578 0.36742s0.83129 0.25745 1.2433 0.39222c0.41205 0.13478 0.82181 0.2737 1.2289 0.41652 0.40705 0.14281 0.81143 0.28954 1.2134 0.44028 0.40192 0.15074 0.80121 0.30551 1.1979 0.46405 0.39665 0.15855 0.79061 0.32109 1.1818 0.48731 0.39123 0.16623 0.77963 0.33626 1.1653 0.51005 0.38568 0.17379 0.7688 0.35103 1.1488 0.53227s0.75706 0.36643 1.1312 0.555c0.37413 0.18857 0.74496 0.38093 1.1131 0.57671 0.36814 0.19578 0.73352 0.39502 1.0955 0.5979 0.36201 0.20287 0.72067 0.40923 1.0764 0.61908 0.35574 0.20985 0.70848 0.42305 1.0578 0.63975 0.34933 0.21671 0.69541 0.43698 1.0382 0.66043 0.34278 0.22345 0.68247 0.44999 1.0186 0.68006 0.33607 0.23007 0.66863 0.46365 0.99787 0.70022 0.32923 0.23657 0.65495 0.47638 0.9772 0.71933 0.32225 0.24296 0.64089 0.48872 0.95601 0.73794 0.31513 0.24922 0.62697 0.50169 0.93483 0.75706s0.61164 0.51375 0.91209 0.77515c0.30044 0.2614 0.5975 0.52592 0.89038 0.79323 0.29289 0.26731 0.58194 0.5377 0.86713 0.81081 0.2852 0.2731 0.56653 0.54907 0.84388 0.82785 0.20554 0.2066 0.40655 0.41615 0.60771 0.6258 4.3518-7.4152 6.8497-16.05 6.8497-25.269 0-27.614-22.386-50-50-50z" fill="#e6ecff" opacity=".99" stroke-width=".26458"/>
  <circle cx="106.58" cy="90.314" r="20" fill="#4294ff" opacity=".99" stroke-width=".29996"/>
 </g>
</svg>
