<?xml-stylesheet type="text/css" href="index.css" ?>
<svg width="805" height="750" viewBox="0 0 805 750" fill="none" xmlns="http://www.w3.org/2000/svg">
    <g id="gears">
        <path id="bigGear"
            d="M606.268 57.0964C605.788 57.7149 603.275 60.7746 600.676 63.9257C595.683 69.9375 593.898 72.9236 591.269 79.4744L589.725 83.4146L585.238 82.7036C574.461 81.0293 575.484 81.3388 575.64 79.2703C576.023 74.5083 574.259 66.1583 571.148 57.9883L567.925 49.6079L561.761 49.3885C558.324 49.2888 555.458 49.2443 555.372 49.3356C555.231 49.4107 553.504 53.1781 551.424 57.7206C548.006 65.3255 547.648 66.51 546.648 72.1434C546.102 75.5041 545.658 78.7196 545.689 79.1992C545.746 79.9806 544.242 80.2895 538.67 80.8366C531.96 81.4511 531.551 81.4447 531.252 80.2964C529.119 73.3625 525.917 67.0458 521.068 60.3479L515.756 53.0401L509.729 54.5075C506.425 55.3294 503.604 56.2979 503.507 56.6209C503.393 56.9978 502.704 61.0209 501.944 65.6688C500.572 73.8929 500.509 82.454 501.786 86.7782C502.294 88.4011 502.785 88.1383 492.89 91.9025C488.894 93.4555 488.716 93.4604 488.105 91.9827C487.859 91.4379 486.006 88.8204 484.067 86.2943C481.5 82.9315 478.425 79.8855 473.397 75.7195L466.294 69.8676L460.753 72.834L455.213 75.8003L455.965 83.6091C456.386 87.8504 456.844 92.1618 457.014 93.1536C457.541 96.075 460.399 104.11 461.462 105.842L462.503 107.45L456.955 111.413C453.938 113.615 451.213 115.435 450.895 115.515C450.576 115.595 449.888 115.151 449.372 114.525C446.557 111.205 439.144 106.376 431.394 102.856C426.996 100.879 423.234 99.3287 422.916 99.4088C422.35 99.5314 414.147 107.217 413.984 107.755C413.936 107.916 415.236 111.777 416.944 116.232C420.135 124.72 424.192 131.707 428.717 136.367C428.755 136.437 426.777 138.895 424.351 141.863C420.666 146.273 419.71 147.1 418.881 146.732C410.168 142.508 406.039 141.2 397.443 139.892C392.687 139.1 388.669 138.589 388.529 138.664C387.757 139.077 382.044 149.22 382.323 149.657C386.918 156.807 392.65 163.889 396.919 167.649C399.656 170.064 402.312 172.161 402.851 172.324C403.928 172.65 403.656 173.743 401.224 179.06C397.612 186.724 398.13 186.176 395.762 185.459C390.539 183.878 383.072 183.5 374.45 184.417L365.773 185.318L364.061 191.558L362.365 197.745L368.996 203.218C375.626 208.692 381.851 212.397 386.966 213.945C389.496 214.711 389.385 213.913 388.126 222.348C387.201 228.121 386.822 229.182 385.745 228.856C385.206 228.693 381.833 228.965 378.217 229.458C372.579 230.22 363.882 232.936 356.094 236.339C355.619 236.548 354.751 248.157 355.164 248.928C355.239 249.069 358.92 250.888 363.301 252.919C370.583 256.239 371.805 256.667 377.53 257.753C380.982 258.386 384.326 258.987 384.897 259.042C385.791 259.195 386.128 260.413 386.75 266.126C387.124 269.942 387.407 273.083 387.337 273.121C380.987 274.491 373.737 278.056 366.375 283.351C362.484 286.111 359.262 288.604 359.213 288.765C359.05 289.304 361.616 300.247 362.056 300.733C362.223 300.96 366.267 301.772 370.985 302.495C379.387 303.861 388.288 303.969 392.418 302.75C393.194 302.515 394.013 302.528 394.233 302.771C394.454 303.014 395.713 306.039 397.003 309.544L399.423 315.919L397.665 316.679C395.82 317.532 388.987 322.634 386.929 324.774C386.238 325.505 383.466 328.839 380.764 332.135L375.809 338.217L378.775 343.757L381.742 349.298L390.898 348.366C399.574 347.465 406.324 345.746 411.626 343.178L413.487 342.272L415.91 345.532C417.241 347.345 419.094 349.963 420.077 351.377C421.746 353.821 421.768 353.945 420.656 354.902C417.195 357.792 412.501 364.952 409.084 372.557C407.156 376.793 405.482 380.577 405.368 380.953C405.27 381.277 407.08 383.646 409.375 386.162L413.577 390.725L422.049 387.588C429.798 384.702 435.965 381.22 441.584 376.632C442.47 375.842 442.814 376.064 448.057 380.295C452.392 383.84 453.472 384.931 452.991 385.549C452.699 385.931 451.302 388.799 449.878 391.953C447.586 397.196 447.228 398.38 445.856 406.604C445.068 411.538 444.417 415.631 444.493 415.771C444.514 415.895 446.924 417.447 449.84 419.27L455.091 422.504L462.42 417.317C469.555 412.188 475.635 406.271 477.957 402.095C478.839 400.54 478.979 400.465 480.766 401.358C481.794 401.846 484.786 403.221 487.326 404.343L491.976 406.455L491.078 410.591C489.601 417.608 489.464 420.975 490.391 429.953L491.308 438.576L497.343 440.578L503.378 442.581L509.127 435.623C514.53 429.03 517.489 424.107 520.4 416.819L521.05 415.252L527.772 416.346C531.472 416.937 534.638 417.542 534.859 417.785C535.041 417.958 535.04 418.545 534.893 419.03C534.747 419.514 534.96 422.694 535.426 426.008C536.13 431.452 537.381 435.474 542.308 448.131C542.56 448.854 543.669 449.072 548.62 449.218C551.933 449.339 554.935 449.131 555.281 448.765C555.626 448.4 557.424 444.595 559.298 440.343C562.229 433.766 562.918 431.682 563.829 426.728C564.451 423.507 564.933 420.362 564.967 419.667C564.937 418.6 565.714 418.365 572.013 417.744C575.829 417.37 579.062 417.173 579.083 417.297C579.158 417.438 579.399 418.392 579.676 419.416C581.204 425.05 584.363 431.119 589.159 437.801C592.026 441.724 594.61 445.033 594.933 445.131C595.256 445.229 598.107 444.74 601.326 444.009C606.965 442.66 607.105 442.584 607.325 440.888C607.456 439.87 608.112 435.954 608.805 432.109C610.002 425.242 610.034 420.668 608.979 413.473C608.768 411.646 608.831 410.078 609.111 409.928C612.153 408.615 621.369 405.35 621.746 405.464C622.015 405.546 622.514 406.226 622.911 407.051C624.841 411.161 630.607 417.549 637.2 422.952L644.137 428.578L649.78 425.466L655.353 422.392L654.431 413.591C653.573 405.163 651.357 396.558 649.21 392.97C648.743 392.183 648.454 391.39 648.536 391.121C648.666 390.69 656.703 384.718 659.325 383.043C659.692 382.801 660.397 383.191 661.187 384.077C664.546 387.737 671.055 392.058 677.632 394.988C681.346 396.7 685.059 398.411 685.942 398.796C687.459 399.607 687.67 399.495 691.223 396.104C693.27 394.196 695.332 392.234 695.851 391.686C696.612 390.917 696.346 389.661 693.615 382.37C690.58 374.34 686.459 366.982 683.148 363.746C682.417 363.055 681.934 362.321 681.999 362.106C682.064 361.89 684.074 359.325 686.484 356.411C690.407 351.603 690.963 351.125 691.835 351.741C692.416 352.152 695.462 353.544 698.578 354.898C703.767 357.174 705.075 357.511 712.815 358.736C717.479 359.442 721.567 359.915 721.901 359.781C722.198 359.577 723.842 357.254 725.491 354.52L728.574 349.576L725.83 345.631C719.414 336.343 717.501 334.119 713.038 330.418C710.452 328.283 707.994 326.306 707.504 325.981C706.617 325.419 706.568 325.58 710.613 316.872L712.509 312.744L714.981 313.316C721.125 314.764 727.396 315.016 736.056 314.169L744.964 313.279L746.789 307.249L748.613 301.219L741.693 295.54C735.009 290.05 729.542 286.751 723.411 284.484L721.306 283.671L722.017 279.184C723.478 269.694 723.429 269.856 724.48 269.88C725.067 269.881 728.209 269.598 731.545 269.256C737.311 268.65 742.73 267.057 751.963 263.151L755.113 261.871L755.272 256.101C755.414 252.911 755.335 250.066 755.147 249.716C754.997 249.435 751.332 247.562 747.005 245.548C739.922 242.347 738.485 241.853 733.029 240.849C729.685 240.248 726.416 239.788 725.721 239.754C724.654 239.784 724.402 239.061 723.857 232.901C723.467 229.14 723.216 225.89 723.281 225.675C723.346 225.46 724.155 225.117 725.147 224.947C729.696 224.09 737.205 220.25 744.184 215.251C750.498 210.697 751.416 209.799 751.209 208.737C751.081 207.993 750.452 205.217 749.807 202.495C748.73 197.702 748.617 197.492 746.904 197.326C745.94 197.211 741.901 196.576 737.931 195.904C730.887 194.713 723.021 194.683 718.072 195.889C716.94 196.134 716.191 196.084 716.019 195.68C714.765 192.832 711.388 183.406 711.518 182.975C711.6 182.706 712.28 182.206 713.105 181.81C716.881 180.014 723.495 174.081 728.882 167.542L734.529 160.729L731.595 155.081L728.624 149.363L719.732 150.199C711.249 151.041 702.909 153.16 699.024 155.51C698.237 155.977 697.444 156.266 697.175 156.185C696.798 156.071 690.938 148.245 689.134 145.466C688.984 145.185 689.801 143.845 690.99 142.442C695.857 137.039 698.366 133.214 701.177 126.836C702.732 123.251 704.357 119.629 704.812 118.709C705.57 117.175 705.495 117.035 701.55 112.785C699.277 110.393 697.175 108.405 696.852 108.308C696.529 108.21 692.544 109.531 687.982 111.207C681.554 113.611 678.501 115.155 674.329 118.065C671.415 120.122 668.835 122.045 668.613 122.389C668.321 122.771 666.417 121.489 662.647 118.409C657.695 114.384 657.179 113.758 657.795 112.886C658.152 112.289 659.495 109.404 660.763 106.379C662.751 101.75 663.333 99.6343 664.54 92.536C665.354 87.9043 665.951 83.7948 665.866 83.299C665.739 82.5551 655.798 75.7859 655.345 76.1189C655.274 76.1564 652.117 78.4334 648.296 81.156C641.631 85.8976 635.928 91.342 632.96 95.9093C631.662 97.8674 631.608 97.8511 629.342 96.9891C628.082 96.4904 625.181 95.2012 622.91 94.1613C618.852 92.2282 618.798 92.2119 619.125 90.5479C620.728 82.9224 621.011 77.1312 620.169 68.6487L619.279 59.7404L613.195 57.8995C607.381 56.14 607.041 56.0961 606.268 57.0964ZM591.028 147.28C591.29 150.298 591.174 153.789 590.71 156.293L589.919 160.462L594.031 162.411C596.302 163.451 598.465 164.458 598.788 164.556C599.149 164.724 599.829 164.224 600.251 163.412C601.901 160.679 605.223 157.276 608.677 154.795C610.684 153.404 612.54 152.32 612.81 152.402C613.079 152.483 614.182 153.111 615.161 153.76L616.974 154.955L616.202 159.834C615.503 164.089 614.049 168.116 612.026 171.5C611.772 171.952 612.986 173.377 615.594 175.636C619.094 178.634 619.654 178.921 620.35 178.368C622.974 176.106 627.63 173.342 631.362 171.885L635.569 170.22L637.235 171.899L638.847 173.563L637.399 177.767C636.004 181.988 633.516 185.937 630.839 188.182C630.072 188.773 629.683 189.478 629.87 189.829C630.074 190.126 631.503 192.203 633.076 194.384C635.82 198.329 635.928 198.361 637.099 197.599C639.403 196.004 643.867 194.652 648.216 194.263C650.593 193.983 652.851 193.903 653.228 194.017C653.551 194.114 654.308 195.108 654.892 196.284L655.911 198.355L653.231 201.775C650.448 205.341 648.277 207.27 644.565 209.438L642.429 210.672L644.308 215.531C645.379 218.206 646.349 220.439 646.581 220.45C646.796 220.515 648.623 220.304 650.644 220.034C655.075 219.376 664.307 220.524 664.697 221.759C665.852 225.517 665.759 226.018 663.444 227.844C660.626 230.165 653.769 233.791 651.538 234.174C649.554 234.514 649.554 234.514 650.165 240.458L650.612 245.001L653.219 245.32C656.505 245.726 662.642 247.584 665.71 249.1C668.002 250.263 668.077 250.404 668.023 252.914C668.03 254.444 667.726 255.645 667.375 255.833C660.919 258.522 654.202 260.134 651.941 259.449C651.403 259.286 650.745 259.323 650.518 259.489C650.275 259.709 649.704 262.181 649.229 264.917L648.355 269.942L652.349 271.503C655.245 272.614 657.418 273.977 660.096 276.198L663.849 279.332L663.067 281.916L662.285 284.501L657.548 285.007C654.196 285.403 651.524 285.299 648.498 284.619L644.184 283.725L642.126 288.391C641.004 290.932 640.11 293.306 640.19 293.624C640.286 293.888 640.813 294.282 641.405 294.462C643.505 295.097 648.53 300.438 652.191 306.012C652.379 306.363 651.967 307.531 651.129 308.746C649.988 310.576 649.464 310.946 648.091 310.824C643.808 310.41 639.075 309.154 635.916 307.552C634.038 306.572 632.381 305.836 632.24 305.911C632.154 306.002 630.566 307.755 628.793 309.922L625.573 313.767L627.948 316.601C630.269 319.419 631.98 322.699 633.461 327.32C634.317 329.929 634.046 330.435 631.072 332.885C630.062 333.696 621.743 329.533 618.42 326.53C616.888 325.184 615.484 323.996 615.269 323.931C615.07 323.812 613.025 325.132 610.65 326.764L606.392 329.766L607.486 331.978C609.373 335.84 610.11 338.649 610.45 343.159L610.784 347.492L608.788 348.651C607.65 349.306 606.469 349.712 606.146 349.614C605.769 349.5 603.935 348.181 602.112 346.631C598.708 343.896 595.742 340.296 594.709 337.691C594.157 336.407 594.049 336.375 589.578 338.137C587.06 339.079 584.719 340.016 584.385 340.15C584.034 340.338 583.968 341.141 584.278 342.057C585.261 345.411 585.143 350.076 583.963 354.362L582.838 358.665L580.574 359.155L578.31 359.645L575.845 356.137C573.16 352.386 571.277 348.702 570.531 345.538L570.029 343.505L564.726 344.134C561.212 344.481 559.411 344.994 559.372 345.511C559.18 349.449 558.157 353.606 556.364 357.589L554.285 362.131L552.183 362.083C549.032 362.011 549.032 362.011 547.324 357.557C545.824 353.577 544.946 348.904 545.089 345.714C545.201 343.985 545.793 344.164 537.375 342.851L534.854 342.441L533.202 346.349C532.199 348.69 530.36 351.66 528.469 354.026L525.335 357.779L522.81 357.191L520.23 356.587L519.728 352.615C519.124 348.201 519.3 344.317 520.247 340.607L520.839 338.259L516.189 336.147C511.34 333.916 510.732 333.79 510.357 335.029C509.608 337.505 499.398 346.581 497.874 346.179C497.588 346.151 496.485 345.524 495.49 344.928C493.914 343.923 493.705 343.448 493.849 341.611C494.125 338.756 496.52 330.842 497.873 328.313L498.972 326.235L494.82 322.864L490.669 319.492L489.146 321.029C487.347 322.894 481.229 326.215 477.525 327.386L474.791 328.263L473.163 326.654C472.249 325.789 471.475 324.85 471.433 324.602C470.979 322.996 478.06 310.857 479.667 310.403C481.009 310.045 480.469 308.53 477.708 304.639L474.744 300.451L472.673 301.47C468.881 303.319 466.056 304.11 461.562 304.396L457.175 304.714L455.92 302.454L454.627 300.123L457.69 296.407C460.927 292.509 465.57 288.624 467.186 288.526C468.216 288.426 468.013 287.542 465.222 280.644C464.114 277.899 464.022 277.813 462.54 278.245C459.962 278.994 454.946 279.063 450.514 278.368C446.474 277.733 446.275 277.614 445.702 276.207C444.588 273.284 445.005 272.293 448.562 269.667C451.963 267.17 456.807 264.757 459.307 264.456C461.027 264.212 461.075 264.05 460.432 258.214C460.1 255.233 459.619 253.325 459.156 253.302C455.024 253.169 450.904 252.216 447.099 250.418C444.774 249.362 442.751 248.28 442.563 247.929C442.413 247.648 442.432 246.42 442.629 245.187C442.904 242.919 442.974 242.882 446.97 241.329C451.23 239.679 457.111 238.696 458.995 239.267C460.018 239.576 460.083 239.361 460.966 235.279C462.41 228.37 462.511 228.812 458.065 226.996C455.331 225.934 452.996 224.522 450.517 222.42L446.909 219.389L447.707 216.751L448.505 214.113L453.189 213.59C456.417 213.215 459.143 213.335 462.008 213.967C466.715 214.921 466.385 215.233 469.03 208.628C470.542 204.795 470.608 204.58 469.585 204.271C467.7 203.7 463.351 199.622 460.72 195.887C458.255 192.38 458.218 192.309 459.246 190.27C459.766 189.134 460.431 188.101 460.712 187.951C461.062 187.763 463.346 187.984 465.867 188.394C470.03 189.008 473.987 190.499 477.5 192.678C477.898 192.916 479.356 191.594 481.285 189.298C485.056 184.798 485.105 184.636 483.809 183.48C481.895 181.843 479.202 177.149 477.756 173.186C476.252 169.028 476.47 167.919 479.001 166.157C480.243 165.358 480.42 165.353 484.677 167.405C489.257 169.555 492.286 171.588 494.091 173.779C495.122 175.032 495.246 175.011 497.707 173.287C503.854 169.094 504.513 168.47 503.712 167.816C502.421 166.838 500.711 161.031 500.178 155.992L499.689 151.201L502.057 149.979L504.355 148.793L507.829 151.49C511.411 154.219 513.324 156.444 515.454 160.086L516.613 162.082L521.402 160.24C525.856 158.532 527.146 157.57 526.227 156.528C525.142 155.26 525.978 141.232 527.247 140.146C527.42 139.963 528.584 139.611 529.824 139.398L532.072 138.961L533.861 141.207C536.348 144.252 539.545 150.391 539.991 152.994L540.423 155.064L545.747 154.56L551.071 154.055L551.292 151.771C551.585 148.862 553.98 140.948 555.333 138.419C556.231 136.81 556.668 136.531 558.537 136.567C559.696 136.624 560.962 136.713 561.214 136.849C562.706 137.359 566.171 150.572 565.422 153.049C565.047 154.287 565.677 154.537 570.879 155.406L575.92 156.226L576.745 153.89C578.014 150.277 580.021 146.947 582.971 143.608L585.591 140.581L588.073 141.508L590.501 142.419L591.028 147.28Z"
            fill="#34754A" />
        <path id="smallGear"
            d="M344.661 453.987C343.201 457.504 341.86 462.72 341.593 465.623C341.057 471.229 341.254 471.027 333.868 472.311C331.073 472.743 330.67 472.447 327.598 466.182C325.757 462.502 322.802 457.736 320.879 455.657L317.535 451.795L313.051 453.246C308.767 454.695 308.668 454.796 307.929 460.205C307.463 463.21 307.426 468.711 307.768 472.407L308.344 479.101L303.863 480.852L299.283 482.604L295.331 478.049C293.103 475.574 289.161 471.918 286.339 469.95L281.398 466.406L277.222 468.554L273.146 470.7L273.811 476.393C274.578 482.285 277.18 491.256 278.701 493.138C279.309 493.832 278.127 495.445 275.551 497.574L271.488 500.821L267.053 497.771C262.516 494.522 252.462 489.836 250.262 489.861C248.662 489.879 243.622 495.137 243.639 496.637C243.664 498.836 249.596 510.47 252.13 513.441C253.65 515.224 254.871 517.01 254.875 517.41C254.881 517.91 253.603 519.825 252.024 521.743L249.264 525.275L243.341 523.242C240.027 522.079 234.614 520.941 231.21 520.579L225.002 519.95L222.95 524.173L220.897 528.297L224.552 533.156C226.481 535.734 230.227 539.692 232.851 541.862L237.595 545.708L235.848 550.328L234.199 554.848L228.894 554.408C225.89 554.142 220.492 554.303 216.897 554.744C209.905 555.523 209.112 556.132 207.978 561.946C207.311 564.853 207.716 565.349 213.565 569.583C216.994 572.144 221.726 574.89 224.036 575.764C228.253 577.316 228.353 577.315 227.9 581.421C227.356 586.327 225.476 588.149 221.277 588.196C219.577 588.216 215.092 589.567 211.21 591.211L204.242 594.09L203.999 599.093L203.755 603.996L210.285 606.622C213.801 607.982 219.017 609.423 221.922 609.79C227.429 610.428 227.43 610.528 228.397 616.417L228.94 620.211L222.774 623.182C219.392 624.82 214.628 627.974 212.25 630.001L207.994 633.85L209.241 638.036C210.383 641.723 211.091 642.415 214.198 642.98C216.202 643.357 221.705 643.595 226.405 643.542L235.103 643.343L236.742 646.725C238.893 651.2 238.808 652.501 236.128 654.332C232.753 656.57 228.406 661.22 225.259 665.956L222.406 670.089L224.751 674.062L226.997 678.037L232.089 677.379C234.886 677.048 240.172 675.787 243.858 674.546L250.633 672.269L252.455 674.248C257.216 679.594 257.214 679.394 253.572 684.536C251.703 687.257 249.156 691.987 247.893 695.201L245.66 701.127L249.199 704.587L252.739 708.047L259.503 704.87C263.284 703.127 267.754 700.476 269.539 699.156C271.323 697.735 273.21 696.614 273.61 696.609C274.11 696.604 276.025 697.882 277.942 699.36L281.375 702.222L279.242 708.146C278.178 711.358 276.939 716.773 276.677 720.076L276.145 726.082L280.37 728.235L284.596 730.487L290.837 725.316C294.305 722.476 297.176 719.843 297.172 719.543C297.168 719.143 298.251 717.631 299.633 716.115L302.002 713.288L306.423 715.138L310.844 716.988L310.522 723.892C310.364 727.594 310.527 733.093 311.061 736.087L311.923 741.577L316.535 742.625L321.149 743.773L325.288 738.425C327.554 735.4 330.401 730.667 331.469 727.855L333.511 722.731L338.118 723.379C340.623 723.75 343.028 724.223 343.331 724.42C343.633 724.616 344.261 727.109 344.594 730.006C345.027 732.901 346.586 738.084 348.024 741.468L350.796 747.737L354.995 747.689C357.395 747.662 359.688 747.036 360.18 746.33C362.25 743.606 365.44 733.969 365.882 728.864C366.338 724.959 366.922 723.552 368.122 723.538C369.022 723.528 371.319 723.202 373.215 722.88C376.609 722.342 376.81 722.44 378.661 726.919C379.691 729.507 382.544 734.175 384.98 737.348L389.446 743.098L393.234 742.054C399.415 740.384 399.805 739.48 399.763 726.979L399.736 715.779L404.015 713.93C406.404 712.903 408.496 712.179 408.597 712.278C411.851 717.042 415.698 721.098 420.337 724.546L426.188 728.98L430.258 726.333C434.328 723.687 434.328 723.687 433.675 718.994C432.701 712.505 431.136 706.822 429.298 703.443C427.866 700.659 427.864 700.459 430.639 698.227C435.097 694.476 436.595 694.359 440.731 697.513C442.751 699.19 447.379 701.637 450.994 702.996L457.423 705.524L460.786 702.185L464.047 698.748L461.578 692.676C460.141 689.392 457.586 684.62 455.757 682.041C452.708 677.775 452.604 677.376 454.08 675.26C458.31 669.111 457.912 669.316 462.936 671.359C465.448 672.43 469.661 673.483 472.365 673.852C474.968 674.122 478.174 674.586 479.377 674.872C481.18 675.152 482.172 674.441 484.135 671.118C486.59 667.19 486.688 666.989 484.959 664.408C484.042 662.919 480.194 658.762 476.454 655.204L469.78 648.78L471.335 644.762L472.99 640.843L482.889 640.63C496.387 640.377 497.681 639.862 499.023 634.747L500.075 630.535L495.833 626.883C491.894 623.427 482.234 618.236 479.934 618.262C479.035 618.273 479.54 609.966 480.52 608.155C480.716 607.853 483.009 607.227 485.605 606.797C488.301 606.467 493.384 604.909 497.166 603.366L503.837 600.69L503.782 595.89C503.729 591.191 503.526 590.993 500.11 589.532C493.278 586.809 487.86 585.27 484.157 585.012C480.155 584.858 480.054 584.759 479.185 578.668L478.539 574.575L483.514 572.419C486.301 571.187 490.968 568.334 493.941 565.9C498.6 562.247 499.188 561.24 498.664 559.046C496.99 552.565 496.686 552.268 490.379 551.64C486.975 551.278 481.474 551.241 478.176 551.478L472.08 551.847L470.229 547.368L468.478 542.888L472.74 539.539C475.119 537.612 478.874 533.669 481.04 530.644L485.078 525.198L482.732 521.124L480.487 517.15L474.394 517.819C471.098 518.156 465.813 519.516 462.525 520.654L456.65 522.821L453.811 519.453C452.19 517.571 450.868 515.686 450.863 515.186C450.858 514.786 452.134 512.671 453.711 510.653C455.289 508.635 457.835 503.906 459.293 500.189L462.017 493.458L459.083 490.491C457.464 488.809 455.649 487.53 454.949 487.538C452.549 487.565 442.901 492.175 438.439 495.526L433.678 498.98L429.742 495.824L425.707 492.77L427.654 488.147C430.281 481.717 431.845 469.699 430.133 468.618C424.188 464.685 423.287 464.596 419.22 467.542C414.359 470.997 411.588 473.629 408.237 477.967L405.676 481.396L401.258 479.847L396.939 478.195L396.829 468.496C396.677 455.097 396.162 453.803 390.946 452.362L386.631 451.111L382.98 455.452C380.908 457.876 377.961 462.61 376.4 466.028L373.568 472.06L368.763 471.615L363.956 471.069L362.788 465.082C362.151 461.789 360.591 456.507 359.255 453.322L356.89 447.648L352.09 447.703L347.391 447.756L344.661 453.987ZM355.355 515.07C356.27 516.359 357.304 519.348 357.731 521.743C358.478 525.835 358.781 526.132 362.188 526.693C365.794 527.252 365.893 527.151 368.63 521.62C371.369 516.188 374.047 514.258 376.07 516.235C376.575 516.729 377.114 520.123 377.055 523.724C377.127 530.124 377.129 530.224 380.241 531.288C383.152 532.255 383.651 532.15 387.802 527.802C390.173 525.275 392.75 523.246 393.45 523.238C397.05 523.197 397.517 529.092 394.489 535.427C393.217 537.942 393.321 538.24 396.244 540.307C398.765 542.079 399.767 542.267 401.056 541.353C401.948 540.643 404.531 539.113 406.917 537.886C410.695 535.843 411.294 535.836 412.609 537.121C414.024 538.405 414.031 539.005 412.766 542.12C411.988 544.029 410.517 546.646 409.433 548.058L407.462 550.581L409.794 553.454L412.026 556.229L416.708 554.576C422.484 552.51 424.684 552.485 426.306 554.367C427.319 555.556 427.13 556.458 424.963 559.383C423.484 561.299 421.407 563.323 420.414 563.935C418.128 565.161 417.946 566.763 419.688 570.443C420.713 572.632 421.316 572.925 423.71 572.398C427.899 571.35 434.214 572.678 435.036 574.569C435.859 576.66 430.613 581.42 426.325 582.469C423.632 583.099 423.534 583.3 424.173 586.693C425.128 591.583 425.431 591.879 428.431 591.845C433.431 591.789 437.756 593.94 437.784 596.439C437.814 599.039 435.031 600.571 428.641 601.544C426.046 601.973 424.854 602.687 424.867 603.787C424.877 604.686 424.595 606.29 424.309 607.493C423.927 609.098 424.536 609.891 427.652 611.255C438.506 616.033 438.451 619.933 427.561 620.857C421.267 621.429 420.769 621.634 419.7 624.347C418.631 627.159 418.736 627.558 423.487 632.004C427.733 636.056 428.243 636.95 427.363 638.66C426.482 640.371 425.585 640.681 422.48 640.216C420.477 639.939 417.567 639.072 416.059 638.389C413.544 637.117 413.245 637.221 410.88 640.248C408.416 643.476 408.417 643.576 410.34 645.554C411.352 646.643 412.983 649.324 413.908 651.514C415.548 655.096 415.553 655.496 413.965 656.614C411.983 658.136 408.971 657.17 403.729 653.43L400.503 651.166L397.631 653.699C394.859 656.131 394.762 656.432 395.992 659.018C396.709 660.51 397.641 663.399 397.964 665.396C398.599 668.489 398.308 669.292 396.619 670.211C394.929 671.131 393.923 670.642 389.777 666.589C384.923 661.844 384.823 661.845 381.737 663.08C378.552 664.416 378.553 664.516 378.63 671.316C378.697 677.215 378.408 678.219 376.814 678.737C374.421 679.364 371.387 676.398 369.128 671.224C367.483 667.242 367.383 667.243 362.694 668.196C360.099 668.726 359.606 669.331 359.632 671.631C359.685 676.231 356.946 681.662 354.646 681.689C352.346 681.715 349.688 676.545 349.635 671.945C349.607 669.445 349.101 668.951 346.495 668.38C341.384 667.438 340.786 667.645 340.12 670.653C339.267 674.763 334.628 680.216 332.619 679.438C330.711 678.76 329.341 672.575 330.191 668.165C330.759 665.359 330.455 664.962 327.44 663.696C324.026 662.435 324.026 662.435 319.381 667.288C315.23 671.635 314.435 672.144 312.524 671.166C310.713 670.186 310.504 669.389 310.97 666.383C311.346 664.279 312.113 661.37 312.695 659.763C313.765 657.151 313.559 656.653 310.936 654.583L308.01 652.316L305.333 654.347C303.845 655.463 301.063 656.995 299.172 657.817C296.087 659.152 295.487 659.159 294.371 657.771C293.357 656.583 293.445 655.482 295.206 652.061C296.38 649.748 297.85 647.131 298.54 646.223C300.212 643.704 295.846 637.953 293.362 639.381C289.784 641.322 282.896 642.4 281.583 641.315C279.363 639.54 280.045 637.932 284.79 633.078C289.24 628.628 289.336 628.326 288.104 625.44C286.871 622.554 286.67 622.456 279.97 622.532C273.87 622.602 273.168 622.41 272.546 620.416C271.718 618.026 274.19 615.497 279.961 612.932C283.246 611.594 283.442 611.192 283.1 607.496C282.658 603.801 282.454 603.503 279.454 603.537C275.354 603.484 269.421 600.651 268.996 598.455C268.575 596.56 273.546 594.003 278.938 593.242C281.834 592.909 282.329 592.504 282.791 589.098C283.352 585.692 283.146 585.194 280.738 584.421C276.821 582.966 271.572 578.725 271.553 577.025C271.528 574.825 276.411 573.27 281.718 573.909C286.324 574.357 286.423 574.256 287.486 571.044C288.451 567.933 288.246 567.535 283.898 563.284C279.144 558.538 278.837 557.941 280.309 555.524C281.194 554.114 284.898 554.472 292.825 556.782C294.229 557.166 295.323 556.654 296.702 554.738C298.473 552.218 298.47 551.918 296.841 549.436C295.926 548.046 294.395 545.364 293.574 543.473C292.14 540.489 292.134 539.989 293.518 538.573C294.902 537.157 295.402 537.152 299.121 538.81C301.332 539.785 303.648 541.158 304.257 541.951C305.777 543.734 307.275 543.517 309.85 541.288L312.128 539.362L310.353 532.782C308.686 526.9 308.676 526 309.967 525.186C312.35 523.658 312.952 523.852 317.806 528.597C322.256 532.947 322.457 533.044 325.744 531.907C329.033 530.87 329.129 530.568 328.493 527.375C327.643 522.985 328.775 516.972 330.567 516.251C332.558 515.429 335.895 518.691 338.049 523.467C339.895 527.446 340.096 527.544 343.689 526.903C347.182 526.263 347.478 525.96 348.036 522.253C349.334 513.238 352.201 510.305 355.355 515.07Z"
            fill="#E07F25" />
        <path id="mediumGear"
            d="M238.618 154.676C235.583 157.87 229.552 167.515 227.767 172.259L225.526 178.003L219.844 177.47C216.681 177.165 214.022 176.905 214.039 176.835C213.969 176.818 213.52 174.055 212.961 170.823C212.262 166.007 208.408 155.574 205.823 151.272C205.505 150.754 196.56 150.335 195.108 150.877C194.953 150.914 193.618 154.067 192.102 157.99C189.944 163.384 189.146 166.443 188.559 171.101C188.13 174.469 187.677 177.314 187.472 177.561C187.283 177.737 184.667 178.226 181.618 178.685C177.564 179.35 176.035 179.283 175.975 178.605C175.792 176.273 170.619 167.373 166.409 162.17L161.758 156.346L156.793 157.754C151.065 159.278 151.303 158.891 150.291 168.764C149.734 174.536 150.412 183.48 151.55 185.816C151.889 186.561 151.773 187.05 151.289 187.231C150.875 187.428 148.336 188.525 145.711 189.675C142.413 191.183 140.699 191.589 140.189 190.952C139.784 190.487 138.022 188.299 136.191 186.094C134.36 183.889 130.115 180.08 126.649 177.636L120.418 173.21L116.126 175.811C113.816 177.183 111.838 178.708 111.755 179.058C111.16 181.574 113.935 194.704 116.198 199.742L118.714 205.578L114.417 209.137C112.114 211.102 110.102 212.767 110.016 212.82C109.913 212.943 107.761 211.475 105.257 209.627C102.438 207.558 98.071 205.196 94.1649 203.681C85.6201 200.331 85.063 200.199 83.7279 201.802C83.0952 202.612 81.5181 204.306 80.1795 205.613L77.8469 208.013L81.0035 215.182C82.7858 219.146 85.8684 224.452 87.8954 227.072C89.9389 229.622 91.6308 231.794 91.7369 231.966C91.9658 232.242 86.2249 240.036 85.1414 240.887C84.5913 241.347 83.8785 241.252 82.7941 240.553C80.3267 238.862 71.0829 236.601 64.3596 236.117L58.0871 235.593L56.0304 239.313C54.8746 241.402 53.8414 243.593 53.6926 244.222C53.2295 246.179 62.259 256.804 67.6515 260.737L72.6228 264.275L71.0439 268.773C68.7104 275.528 69.1412 275.261 62.451 274.637C58.4196 274.274 53.8912 274.457 48.677 275.364L40.7944 276.673L39.7629 281.964L38.748 287.186L44.3694 291.395C49.6061 295.365 59.6471 300.471 61.1684 299.946C62.2755 299.617 62.5522 302.487 61.8158 307.775C61.2413 312.068 60.9732 312.89 60.1377 312.692C57.7007 312.116 48.2706 314.682 41.9005 317.677L35.0466 320.853L35.2414 325.623C35.3423 328.304 35.4928 330.775 35.6356 331.104C35.7618 331.503 39.0777 333.026 43.0699 334.487C49.5025 336.821 56.0108 338.213 60.5757 338.186C61.9117 338.133 62.2337 338.948 63.0752 344.092C63.9498 349.097 63.8575 350.108 62.9062 350.4C57.3178 351.956 41.8882 362.477 41.2598 365.133C41.0448 366.041 43.3101 374.18 44.0299 374.867C45.0847 376.002 59.9169 376.707 65.4792 375.882L71.4228 375L72.6308 377.353C73.2713 378.685 74.3069 381.145 75.0206 382.79L76.2355 385.734L72.09 388.961C67.5137 392.454 65.612 394.587 61.0043 401.321L57.8475 405.962L60.5916 410.523L63.3887 415.171L70.804 413.973C75.3089 413.267 80.4996 411.838 84.0227 410.31L89.9289 407.722L93.6277 412.288C97.3265 416.853 97.31 416.923 95.8887 418.58C92.4133 422.703 89.6412 427.582 87.3042 434.041C85.7584 438.399 84.9777 441.389 85.3127 441.837C85.5782 442.269 87.2997 444.005 89.1073 445.687L92.4406 448.69L99.2615 445.654C105.84 442.708 109.562 440.341 113.959 436.362L116.02 434.488L120.537 437.771C122.988 439.532 125.107 441.14 125.23 441.243C125.266 441.4 124.412 444.076 123.217 447.262C121.655 451.69 121.03 454.643 120.473 460.415C120.087 464.531 119.834 468.088 120.01 468.277C120.099 468.52 122.232 469.763 124.626 471.141C128.383 473.285 129.219 473.482 130.044 472.792C140.773 464.112 143.792 460.988 147.521 454.858C148.134 453.822 148.708 453.884 151.48 454.909C160.164 458.292 159.726 457.967 159.147 460.414C158.122 464.747 158.211 470.895 159.389 478.037L160.566 485.18L165.927 486.449L171.358 487.734L176.105 481.033C179.418 476.355 181.339 472.898 182.461 469.399C184.39 463.729 184.476 463.676 191.83 464.604C196.054 465.086 196.385 465.239 196.403 466.719C196.517 470.584 199.015 479.294 201.687 485.093L204.677 491.41L208.964 491.317C211.324 491.285 213.804 491.06 214.496 490.929C216.382 490.415 220.847 477.448 221.629 470.104C222.009 466.947 222.326 464.364 222.412 464.311C222.498 464.258 225.027 463.823 228.024 463.277L233.533 462.366L236.152 468.079C237.665 471.315 240.953 476.374 243.753 479.768L248.666 485.728L253.422 484.27C256.051 483.415 258.384 482.565 258.589 482.318C258.864 482.088 259.31 478.651 259.732 474.691C260.415 467.767 259.996 460.213 258.775 456.676C258.237 455.221 258.614 454.867 263.639 452.587L269.061 450.179L273.022 454.881C275.258 457.55 279.749 461.565 283.32 464.182L289.658 468.781L293.831 466.373C296.124 465.071 298.135 463.406 298.284 462.777C298.913 460.121 296.267 447.686 293.91 442.109L291.447 436.359L295.487 432.96C297.687 431.119 299.682 429.524 299.854 429.418C300.113 429.257 302.56 430.722 305.412 432.652C308.632 434.89 313.225 437.231 317.741 438.964C321.733 440.425 324.976 441.635 325.062 441.582C325.079 441.512 326.828 439.712 328.783 437.665L332.348 433.784L329.142 426.826C326.344 420.628 320.687 411.909 318.71 410.629C318.256 410.374 319.293 408.479 321.582 405.33C324.639 401.108 325.292 400.524 326.479 401.101C333.168 404.528 350.491 407.446 352.273 405.506C352.7 404.943 354.012 402.817 355.098 400.712L357.085 396.975L352.381 391.065C348.012 385.603 340.732 379.082 338.295 378.506C337.46 378.308 337.572 377.523 338.916 373.707C340.746 368.457 342.243 365.859 343.016 366.632C344.071 367.768 355.336 367.702 361.849 366.586L368.761 365.343L370.227 360.08L371.676 354.887L365.268 350.271C361.067 347.21 356.978 344.914 353.281 343.449C347.02 341.008 347.306 341.666 348.269 333.554L348.761 329.611L354.237 328.84C360.943 327.843 375.212 321.919 375.121 320.126C375.061 319.448 374.964 317.063 374.85 314.748L374.679 310.5L369.184 308.241C363.01 305.746 354.446 303.72 350.733 303.875C348.045 304.051 347.796 303.549 346.698 295.761L346.132 291.936L349.122 290.798C354.305 288.777 358.269 286.32 363.856 281.663L369.409 277.146L368.107 272.705C367.436 270.258 366.732 267.951 366.467 267.519C365.402 265.496 343.82 265.039 340.649 266.946C339.217 267.714 338.865 267.336 336.3 261.71L333.684 256.293L335.872 254.818C340.246 251.867 343.967 247.95 348.237 242.022L352.556 235.885L349.673 231.291L346.843 226.783L338.977 228.022C334.144 228.871 329.195 230.21 325.967 231.734C323.153 233.061 320.631 234.088 320.352 234.022C319.726 233.874 313.223 225.619 313.339 225.13C313.405 224.85 314.889 222.618 316.632 220.225C318.407 217.693 320.749 213.08 322.063 209.701C323.377 206.321 324.691 202.942 325.099 202.153C325.605 200.944 325.144 200.097 321.811 197.094C319.529 194.93 317.483 193.634 316.929 193.798C310.098 195.946 299.271 202.242 295.016 206.549C294.347 207.203 293.336 206.816 289.678 204.253C287.157 202.475 285.038 200.867 284.965 200.554C284.875 200.312 285.696 197.775 286.792 195.008C288.662 190.21 290.995 176 290.225 173.973C289.92 173.089 281.357 168.258 280.824 168.648C280.652 168.755 277.934 170.917 274.839 173.432C269.647 177.666 263.342 184.736 262.829 186.903C262.482 188.37 261.7 188.259 256.049 186.037L250.731 183.966L251.384 177.478C251.902 172.803 251.684 169.061 250.81 164.056L249.583 157.123L244.341 155.661C241.449 154.83 238.893 154.446 238.618 154.676ZM230.031 231.99C230.403 234.145 230.461 237.627 230.191 239.704C229.814 243.158 229.957 243.487 231.808 244.367C232.872 244.841 234.772 245.512 235.956 245.792C237.905 246.253 238.352 245.916 240.592 242.977C241.89 241.217 244.309 238.763 245.91 237.592C248.335 235.73 249.045 235.529 250.547 236.327C251.525 236.854 252.371 237.94 252.468 238.775C252.555 240.272 250.574 248.955 249.614 251.459C249.243 252.405 249.983 253.318 252.54 255.251C255.727 257.629 256.058 257.781 256.949 256.811C258.715 254.941 267.905 249.661 268.95 249.908C269.576 250.056 270.608 250.669 271.274 251.27C272.362 252.265 272.386 252.788 271.141 256.184C270.367 258.215 268.856 261.179 267.677 262.745C266.514 264.241 265.491 265.77 265.425 266.05C265.358 266.33 266.49 268.073 267.916 269.813L270.524 273.087L273.994 271.473C275.84 270.507 279.161 269.522 281.309 269.144C284.81 268.644 285.367 268.775 286.474 269.997C287.108 270.738 287.589 271.811 287.457 272.37C287.044 274.118 282.902 279.19 280.099 281.405C277.193 283.744 277.16 283.884 279.35 288.609L280.688 291.657L285.037 290.988C287.464 290.676 290.951 290.542 292.827 290.691C296.043 291.083 296.305 291.218 296.834 293.336C297.329 295.594 297.296 295.734 293.856 298.463C291.878 299.987 289.034 301.75 287.566 302.363C286.114 302.905 284.732 303.463 284.576 303.5C284.404 303.607 284.548 305.486 284.904 307.711L285.489 311.762L292.8 313.491C300.598 315.336 301.421 315.9 300.66 319.115C300.197 321.072 293.843 323.998 289.454 324.214L286.02 324.435L285.71 327.609C285.522 329.336 285.268 331.343 285.119 331.972C284.904 332.88 285.64 333.497 288.203 334.473C290.087 335.214 293.161 336.827 295.051 338.16C298.341 340.414 298.5 340.673 297.971 342.91C297.458 345.077 297.097 345.36 293.805 345.91C291.744 346.234 288.412 346.332 286.343 346.064C284.274 345.796 282.434 345.803 282.246 345.98C282.057 346.157 281.245 348.031 280.454 350.132L279.041 353.931L282.155 355.997C286.844 359.173 290.105 363.413 289.662 365.597C289.414 366.645 288.646 367.718 287.973 368.075C286.644 368.721 277.563 367.015 274.906 365.501C273.265 364.669 273.007 364.83 270.602 368.468C268.435 371.719 268.114 372.455 268.834 373.142C271.239 375.409 273.253 378.395 274.68 381.685C276.266 385.234 276.233 385.374 274.706 386.858C273.195 388.272 272.83 388.259 269.378 387C267.286 386.209 264.282 384.613 262.6 383.329C260.902 382.116 259.364 381.161 259.261 381.284C259.089 381.391 257.627 382.596 256.08 383.853C254.446 385.164 253.108 386.471 253.058 386.681C253.008 386.891 253.672 388.745 254.598 390.736C255.508 392.796 256.448 395.971 256.644 397.937C257.117 401.222 257.067 401.432 255.569 402.48C254.691 403.084 253.568 403.483 253.08 403.367C251.479 402.988 245.429 397.793 243.963 395.601C243.203 394.461 242.341 393.445 242.132 393.396C241.923 393.346 240.229 393.979 238.33 394.858C236.517 395.684 234.79 396.456 234.618 396.563C234.462 396.6 234.606 398.479 234.892 400.688C235.248 402.912 235.306 406.395 235.105 408.488C234.746 411.872 234.524 412.189 232.588 412.912C230.566 413.688 230.443 413.585 227.75 410.364C226.184 408.592 224.326 405.569 223.645 403.784C222.786 401.514 221.993 400.514 221.161 400.613C213.828 401.461 213.414 401.658 213.458 403.957C213.427 407.197 211.078 415.572 209.994 416.423C209.46 416.813 208.214 417.109 207.19 417.088C205.661 417.022 205.097 416.298 203.507 412.452C202.558 409.94 201.582 406.609 201.511 405.042L201.39 402.135L197.375 401.701C195.167 401.4 193.135 401.289 192.893 401.379C192.582 401.453 191.701 403.311 190.979 405.429C188.91 411.065 185.485 414.979 182.981 414.682C181.261 414.496 180.926 414.048 180.171 410.4C179.746 408.159 179.565 404.573 179.766 402.48C180.037 400.404 180.049 398.488 179.803 398.282C179.628 398.093 177.691 397.266 175.582 396.545C172.2 395.302 171.627 395.24 171.395 396.219C171.031 397.756 167.281 402.11 164.202 404.555C162.121 406.203 161.256 406.441 159.86 405.816C157.47 404.733 157.282 402.106 159.317 395.059L161.035 389.044L157.553 386.67L154.001 384.279L152.593 385.57C149.846 388.168 147.228 389.91 143.996 391.138C140.818 392.453 140.678 392.42 139.149 390.803C137.726 389.36 137.739 388.994 138.951 385.737C139.709 383.776 141.375 380.775 142.76 378.962L145.291 375.723L142.421 372.313L139.605 368.99L136.377 370.514C133.235 371.985 126.778 373.483 125.107 373.088C124.619 372.973 123.794 372.113 123.279 371.179C122.41 369.571 122.459 369.362 124.851 366.089C126.183 364.19 128.618 361.666 130.149 360.479L133.059 358.436L131.346 354.488C130.453 352.358 129.494 350.507 129.215 350.441C129.006 350.392 127.707 350.601 126.305 350.933C124.903 351.266 121.71 351.396 119.105 351.223C114.467 350.937 114.327 350.904 113.471 348.93C112.81 347.372 112.837 346.64 113.642 345.723C115.355 343.766 122.367 339.299 123.928 339.226C125.732 339.062 125.947 338.153 125.109 333.305C124.786 330.941 124.125 329.382 123.588 329.476C121.317 329.751 116.082 328.881 112.995 327.634C110.187 326.453 109.643 325.955 109.43 324.06C109.233 322.094 109.525 321.794 112.544 320.22C114.39 319.255 117.728 318.199 119.945 317.838C124.225 317.153 124.258 317.013 124.802 311.606L125.128 308.362L121.259 307.004C119.167 306.214 116.093 304.6 114.464 303.403C111.854 301.383 111.589 300.952 112.085 298.855C112.614 296.618 112.872 296.458 117.016 296.036C119.373 295.708 122.844 295.643 124.651 295.775C127.953 296.114 128.022 296.13 129.184 293.084C130.952 288.409 131.114 287.414 129.93 287.134C126.728 286.376 119.815 278.615 120.327 276.448C121.088 273.232 122.076 273.097 129.96 274.889L137.427 276.582L139.408 273.803C142.141 270.021 142.137 269.725 139.766 267.318C138.572 266.15 136.82 263.3 135.751 260.98C133.985 256.946 133.965 256.72 135.386 255.063C136.721 253.46 137.017 253.456 140.067 254.547C141.811 255.255 144.869 256.938 146.898 258.304L150.487 260.85L153.635 258.421C155.338 257.127 156.816 255.853 156.882 255.573C156.931 255.363 156.284 253.439 155.461 251.325C154.584 249.125 153.661 245.88 153.431 244.054C152.975 240.699 152.992 240.629 154.957 239.47L156.922 238.311L160.212 240.566C162.049 241.812 164.491 244.235 165.725 245.856L167.878 248.875L172.004 246.972L176.147 245L175.339 241.266C174.934 239.251 174.72 235.805 175.007 233.659C175.317 230.485 175.638 229.749 176.881 229.157C177.693 228.833 178.853 228.591 179.48 228.739C180.872 229.068 186.098 236.505 187.087 239.47L187.755 241.62L191.878 240.972L196.002 240.324L197.825 232.932C198.853 228.894 199.906 225.379 200.164 225.219C200.423 225.058 201.62 224.972 202.783 225.026C204.606 225.089 205.081 225.57 206.438 228.844C207.278 230.887 208.202 234.132 208.431 235.958C208.814 239.001 209.08 239.433 211.029 239.894C212.213 240.174 214.212 240.426 215.445 240.496C217.424 240.521 217.699 240.291 218.911 237.035C219.653 235.144 221.265 232.056 222.581 230.227C224.75 227.271 225.181 227.004 227.2 227.482C229.15 227.943 229.415 228.375 230.031 231.99Z"
            fill="#8B1C1C" />
    </g>
</svg>